# This file uses centimeters as units for non-parametric coordinates.

mtllib FantasyClothSimulations.mtl
g default
v 10.177554 11.073796 15.489442
v 10.182141 11.757551 15.298583
v 10.171769 11.968179 14.359210
v 10.148233 11.427817 13.739401
v 10.128638 10.729143 13.679362
v 10.109923 10.032591 13.648778
v 10.091283 9.336471 13.613436
v 10.072966 8.640609 13.572648
v 10.054621 7.945166 13.525384
v 10.036136 7.250265 13.470637
v 10.017156 6.556024 13.407181
v 9.834835 11.101016 15.639453
v 9.823812 11.755733 15.306662
v 9.815425 11.978742 14.371153
v 9.792220 11.436864 13.750020
v 9.772761 10.738786 13.695496
v 9.753433 10.042327 13.664683
v 9.734603 9.346080 13.630394
v 9.716017 8.650047 13.592465
v 9.697478 7.954392 13.550265
v 9.678861 7.259179 13.503892
v 9.660054 6.564431 13.450760
v 9.478860 11.111946 15.700400
v 9.467198 11.750675 15.307992
v 9.458676 11.987367 14.380967
v 9.435883 11.445732 13.760121
v 9.416334 10.748689 13.705077
v 9.396986 10.052242 13.675322
v 9.377916 9.355929 13.641963
v 9.359010 8.659890 13.604354
v 9.340036 7.964293 13.561587
v 9.321011 7.269195 13.512030
v 9.301937 6.574739 13.452180
v 9.120986 11.109196 15.711728
v 9.110031 11.744562 15.316434
v 9.103027 11.998174 14.393475
v 9.079412 11.457457 13.773306
v 9.059779 10.758822 13.715663
v 9.040413 10.062301 13.685670
v 9.021167 9.366013 13.652133
v 9.001890 8.670044 13.614071
v 8.982580 7.974475 13.571141
v 8.963335 7.279238 13.523566
v 8.944188 6.584546 13.469134
v 8.763592 11.097090 15.693341
v 8.753186 11.739987 15.314536
v 8.746464 12.006096 14.402777
v 8.723381 11.468082 13.783005
v 8.703447 10.768894 13.726548
v 8.683797 10.072397 13.695468
v 8.664196 9.376299 13.660767
v 8.644645 8.680447 13.621434
v 8.625181 7.984870 13.577359
v 8.605746 7.289652 13.527607
v 8.586394 6.595124 13.469292
v 8.406333 11.090225 15.690470
v 8.396246 11.735078 15.318501
v 8.388979 12.016507 14.416981
v 8.367187 11.479118 13.795788
v 8.347003 10.779322 13.735981
v 8.326883 10.082858 13.704306
v 8.306919 9.386888 13.668389
v 8.287381 8.690956 13.628113
v 8.267872 7.995331 13.583117
v 8.248271 7.300108 13.532958
v 8.228628 6.605530 13.476040
v 8.048981 11.080683 15.678374
v 8.039124 11.728608 15.322409
v 8.032225 12.026938 14.429026
v 8.010228 11.487012 13.801108
v 7.990309 10.789543 13.744427
v 7.969669 10.093505 13.713139
v 7.949813 9.397342 13.677827
v 7.930316 8.701267 13.638777
v 7.910719 8.005537 13.596083
v 7.890940 7.310260 13.548802
v 7.871004 6.615604 13.494084
v 7.690949 11.073169 15.672778
v 7.682169 11.723370 15.322753
v 7.676025 12.032281 14.439149
v 7.653485 11.496823 13.812094
v 7.632441 10.800285 13.754309
v 7.612570 10.103966 13.725482
v 7.593038 9.407564 13.691666
v 7.573457 8.711406 13.654347
v 7.553601 8.015686 13.613200
v 7.533611 7.320416 13.567065
v 7.513337 6.625725 13.513341
v 7.332442 11.066833 15.667945
v 7.324214 11.718987 15.326365
v 7.322108 12.043338 14.452649
v 7.294602 11.508179 13.825392
v 7.275082 10.810801 13.771779
v 7.255882 10.114172 13.741900
v 7.236516 9.417639 13.709254
v 7.216604 8.721577 13.673127
v 7.196506 8.025866 13.633023
v 7.176255 7.330603 13.588099
v 7.155657 6.635838 13.536650
v 6.974482 11.059063 15.656640
v 6.965700 11.712908 15.327485
v 6.967010 12.061854 14.468287
v 6.939437 11.524684 13.849305
v 6.919169 10.821253 13.789452
v 6.899758 10.124179 13.762345
v 6.879963 9.427820 13.734202
v 6.859959 8.731670 13.701186
v 6.839685 8.035891 13.663779
v 6.819238 7.340570 13.622002
v 6.798422 6.645667 13.574776
v 6.616630 11.049027 15.635851
v 6.608902 11.707828 15.319054
v 6.608390 12.071952 14.476094
v 6.583564 11.531128 13.859421
v 6.566973 10.830802 13.850085
v 6.546021 10.133750 13.824828
v 6.525825 9.437140 13.796065
v 6.505561 8.740966 13.763697
v 6.484967 8.045121 13.726674
v 6.463919 7.349761 13.683550
v 6.442219 6.655112 13.631121
vt 0.317233 0.639924
vt 0.348092 0.639924
vt 0.378951 0.639924
vt 0.409809 0.639924
vt 0.440668 0.639924
vt 0.471527 0.639924
vt 0.502386 0.639924
vt 0.533245 0.639924
vt 0.564104 0.639924
vt 0.594963 0.639924
vt 0.625822 0.639924
vt 0.317233 0.670783
vt 0.348092 0.670783
vt 0.378951 0.670783
vt 0.409809 0.670783
vt 0.440668 0.670783
vt 0.471527 0.670783
vt 0.502386 0.670783
vt 0.533245 0.670783
vt 0.564104 0.670783
vt 0.594963 0.670783
vt 0.625822 0.670783
vt 0.317233 0.701642
vt 0.348092 0.701642
vt 0.378951 0.701642
vt 0.409809 0.701642
vt 0.440668 0.701642
vt 0.471527 0.701642
vt 0.502386 0.701642
vt 0.533245 0.701642
vt 0.564104 0.701642
vt 0.594963 0.701642
vt 0.625822 0.701642
vt 0.317233 0.732501
vt 0.348092 0.732501
vt 0.378951 0.732501
vt 0.409809 0.732501
vt 0.440668 0.732501
vt 0.471527 0.732501
vt 0.502386 0.732501
vt 0.533245 0.732501
vt 0.564104 0.732501
vt 0.594963 0.732501
vt 0.625822 0.732501
vt 0.317233 0.763360
vt 0.348092 0.763360
vt 0.378951 0.763360
vt 0.409809 0.763360
vt 0.440668 0.763360
vt 0.471527 0.763360
vt 0.502386 0.763360
vt 0.533245 0.763360
vt 0.564104 0.763360
vt 0.594963 0.763360
vt 0.625822 0.763360
vt 0.317233 0.794218
vt 0.348092 0.794218
vt 0.378951 0.794218
vt 0.409809 0.794218
vt 0.440668 0.794218
vt 0.471527 0.794218
vt 0.502386 0.794218
vt 0.533245 0.794218
vt 0.564104 0.794218
vt 0.594963 0.794218
vt 0.625822 0.794218
vt 0.317233 0.825077
vt 0.348092 0.825077
vt 0.378951 0.825077
vt 0.409809 0.825077
vt 0.440668 0.825077
vt 0.471527 0.825077
vt 0.502386 0.825077
vt 0.533245 0.825077
vt 0.564104 0.825077
vt 0.594963 0.825077
vt 0.625822 0.825077
vt 0.317233 0.855936
vt 0.348092 0.855936
vt 0.378951 0.855936
vt 0.409809 0.855936
vt 0.440668 0.855936
vt 0.471527 0.855936
vt 0.502386 0.855936
vt 0.533245 0.855936
vt 0.564104 0.855936
vt 0.594963 0.855936
vt 0.625822 0.855936
vt 0.317233 0.886795
vt 0.348092 0.886795
vt 0.378951 0.886795
vt 0.409809 0.886795
vt 0.440668 0.886795
vt 0.471527 0.886795
vt 0.502386 0.886795
vt 0.533245 0.886795
vt 0.564104 0.886795
vt 0.594963 0.886795
vt 0.625822 0.886795
vt 0.317233 0.917654
vt 0.348092 0.917654
vt 0.378951 0.917654
vt 0.409809 0.917654
vt 0.440668 0.917654
vt 0.471527 0.917654
vt 0.502386 0.917654
vt 0.533245 0.917654
vt 0.564104 0.917654
vt 0.594963 0.917654
vt 0.625822 0.917654
vt 0.317233 0.948513
vt 0.348092 0.948513
vt 0.378951 0.948513
vt 0.409809 0.948513
vt 0.440668 0.948513
vt 0.471527 0.948513
vt 0.502386 0.948513
vt 0.533245 0.948513
vt 0.564104 0.948513
vt 0.594963 0.948513
vt 0.625822 0.948513
vn 0.217801 0.356501 0.908554
vn 0.116248 0.804864 0.581963
vn 0.079688 0.814991 0.573969
vn 0.145564 0.428399 0.891788
vn 0.010896 0.978007 -0.208288
vn 0.008185 0.979910 -0.199273
vn -0.017588 0.479077 -0.877597
vn -0.015024 0.479799 -0.877250
vn -0.039463 0.063947 -0.997173
vn -0.032865 0.062803 -0.997485
vn -0.044125 0.048143 -0.997865
vn -0.036268 0.047441 -0.998215
vn -0.047222 0.054411 -0.997401
vn -0.038861 0.053280 -0.997823
vn -0.055252 0.061699 -0.996564
vn -0.043118 0.060038 -0.997264
vn -0.069854 0.070061 -0.995094
vn -0.048899 0.067853 -0.996496
vn -0.091814 0.080250 -0.992537
vn -0.054986 0.077881 -0.995445
vn -0.104479 0.086006 -0.990801
vn -0.057995 0.083782 -0.994795
vn 0.029683 0.830415 0.556355
vn 0.047791 0.508066 0.859991
vn 0.006857 0.980972 -0.194029
vn -0.013903 0.478173 -0.878156
vn -0.027838 0.062057 -0.997684
vn -0.028060 0.046454 -0.998526
vn -0.028648 0.052001 -0.998236
vn -0.028344 0.058474 -0.997887
vn -0.027117 0.065958 -0.997454
vn -0.025253 0.076064 -0.996783
vn -0.024153 0.082160 -0.996326
vn 0.001770 0.825372 0.564587
vn -0.009610 0.521817 0.853004
vn 0.007102 0.983265 -0.182045
vn -0.013490 0.480536 -0.876871
vn -0.028236 0.062941 -0.997618
vn -0.026876 0.046626 -0.998551
vn -0.024673 0.052350 -0.998324
vn -0.022312 0.059028 -0.998007
vn -0.020487 0.066407 -0.997582
vn -0.020126 0.076138 -0.996894
vn -0.020455 0.081985 -0.996424
vn -0.003550 0.819101 0.573639
vn -0.021754 0.510503 0.859601
vn 0.006692 0.984208 -0.176888
vn -0.013637 0.480275 -0.877012
vn -0.026728 0.064037 -0.997590
vn -0.024456 0.047782 -0.998558
vn -0.021220 0.053644 -0.998335
vn -0.017906 0.060226 -0.998024
vn -0.014569 0.067352 -0.997623
vn -0.010896 0.076566 -0.997005
vn -0.008946 0.082025 -0.996590
vn 0.001490 0.808227 0.588870
vn -0.013943 0.496987 0.867646
vn 0.008654 0.986232 -0.165144
vn -0.010834 0.484256 -0.874859
vn -0.023184 0.064736 -0.997633
vn -0.023147 0.048637 -0.998548
vn -0.022553 0.054563 -0.998256
vn -0.022840 0.060821 -0.997887
vn -0.024560 0.067762 -0.997399
vn -0.027733 0.076843 -0.996657
vn -0.029639 0.082188 -0.996176
vn -0.003435 0.797267 0.603617
vn -0.017986 0.483962 0.874904
vn 0.005347 0.987748 -0.155963
vn -0.010773 0.482849 -0.875637
vn -0.024094 0.064029 -0.997657
vn -0.027934 0.048029 -0.998455
vn -0.031274 0.053940 -0.998054
vn -0.035255 0.059631 -0.997598
vn -0.040165 0.066079 -0.997006
vn -0.045119 0.074925 -0.996168
vn -0.047441 0.080226 -0.995647
vn 0.000983 0.788777 0.614679
vn -0.011750 0.473241 0.880855
vn 0.005642 0.988574 -0.150633
vn -0.017759 0.483894 -0.874947
vn -0.035727 0.062723 -0.997391
vn -0.039291 0.046692 -0.998136
vn -0.042539 0.052322 -0.997724
vn -0.046235 0.057723 -0.997262
vn -0.049647 0.064046 -0.996711
vn -0.053006 0.072849 -0.995933
vn -0.054757 0.078124 -0.995439
vn 0.005355 0.777445 0.628929
vn -0.014964 0.462767 0.886354
vn 0.012942 0.990076 -0.139935
vn -0.023838 0.480471 -0.876687
vn -0.048420 0.062204 -0.996888
vn -0.051682 0.044939 -0.997652
vn -0.057581 0.049935 -0.997091
vn -0.063636 0.055765 -0.996414
vn -0.068999 0.062225 -0.995674
vn -0.075258 0.070483 -0.994670
vn -0.078769 0.075257 -0.994048
vn -0.006870 0.762783 0.646618
vn -0.033615 0.448685 0.893057
vn 0.010279 0.992287 -0.123539
vn -0.037180 0.479543 -0.876730
vn -0.094210 0.054591 -0.994055
vn -0.114505 0.043713 -0.992461
vn -0.119782 0.048345 -0.991622
vn -0.124467 0.054599 -0.990720
vn -0.128165 0.061338 -0.989854
vn -0.129667 0.069700 -0.989105
vn -0.129579 0.074484 -0.988768
vn -0.017830 0.758909 0.650953
vn -0.045975 0.440601 0.896525
vn 0.004364 0.992680 -0.120692
vn -0.048570 0.467338 -0.882744
vn -0.134332 0.046784 -0.989831
vn -0.171110 0.043521 -0.984290
vn -0.171516 0.048138 -0.984005
vn -0.171878 0.054398 -0.983615
vn -0.171515 0.061372 -0.983268
vn -0.165873 0.070288 -0.983639
vn -0.161071 0.075502 -0.984051
s 1
g pPlane8 ClothSimulations
usemtl lambert13SG
f 1/1/1 2/2/2 13/13/3 12/12/4
f 2/2/2 3/3/5 14/14/6 13/13/3
f 3/3/5 4/4/7 15/15/8 14/14/6
f 4/4/7 5/5/9 16/16/10 15/15/8
f 5/5/9 6/6/11 17/17/12 16/16/10
f 6/6/11 7/7/13 18/18/14 17/17/12
f 7/7/13 8/8/15 19/19/16 18/18/14
f 8/8/15 9/9/17 20/20/18 19/19/16
f 9/9/17 10/10/19 21/21/20 20/20/18
f 10/10/19 11/11/21 22/22/22 21/21/20
f 12/12/4 13/13/3 24/24/23 23/23/24
f 13/13/3 14/14/6 25/25/25 24/24/23
f 14/14/6 15/15/8 26/26/26 25/25/25
f 15/15/8 16/16/10 27/27/27 26/26/26
f 16/16/10 17/17/12 28/28/28 27/27/27
f 17/17/12 18/18/14 29/29/29 28/28/28
f 18/18/14 19/19/16 30/30/30 29/29/29
f 19/19/16 20/20/18 31/31/31 30/30/30
f 20/20/18 21/21/20 32/32/32 31/31/31
f 21/21/20 22/22/22 33/33/33 32/32/32
f 23/23/24 24/24/23 35/35/34 34/34/35
f 24/24/23 25/25/25 36/36/36 35/35/34
f 25/25/25 26/26/26 37/37/37 36/36/36
f 26/26/26 27/27/27 38/38/38 37/37/37
f 27/27/27 28/28/28 39/39/39 38/38/38
f 28/28/28 29/29/29 40/40/40 39/39/39
f 29/29/29 30/30/30 41/41/41 40/40/40
f 30/30/30 31/31/31 42/42/42 41/41/41
f 31/31/31 32/32/32 43/43/43 42/42/42
f 32/32/32 33/33/33 44/44/44 43/43/43
f 34/34/35 35/35/34 46/46/45 45/45/46
f 35/35/34 36/36/36 47/47/47 46/46/45
f 36/36/36 37/37/37 48/48/48 47/47/47
f 37/37/37 38/38/38 49/49/49 48/48/48
f 38/38/38 39/39/39 50/50/50 49/49/49
f 39/39/39 40/40/40 51/51/51 50/50/50
f 40/40/40 41/41/41 52/52/52 51/51/51
f 41/41/41 42/42/42 53/53/53 52/52/52
f 42/42/42 43/43/43 54/54/54 53/53/53
f 43/43/43 44/44/44 55/55/55 54/54/54
f 45/45/46 46/46/45 57/57/56 56/56/57
f 46/46/45 47/47/47 58/58/58 57/57/56
f 47/47/47 48/48/48 59/59/59 58/58/58
f 48/48/48 49/49/49 60/60/60 59/59/59
f 49/49/49 50/50/50 61/61/61 60/60/60
f 50/50/50 51/51/51 62/62/62 61/61/61
f 51/51/51 52/52/52 63/63/63 62/62/62
f 52/52/52 53/53/53 64/64/64 63/63/63
f 53/53/53 54/54/54 65/65/65 64/64/64
f 54/54/54 55/55/55 66/66/66 65/65/65
f 56/56/57 57/57/56 68/68/67 67/67/68
f 57/57/56 58/58/58 69/69/69 68/68/67
f 58/58/58 59/59/59 70/70/70 69/69/69
f 59/59/59 60/60/60 71/71/71 70/70/70
f 60/60/60 61/61/61 72/72/72 71/71/71
f 61/61/61 62/62/62 73/73/73 72/72/72
f 62/62/62 63/63/63 74/74/74 73/73/73
f 63/63/63 64/64/64 75/75/75 74/74/74
f 64/64/64 65/65/65 76/76/76 75/75/75
f 65/65/65 66/66/66 77/77/77 76/76/76
f 67/67/68 68/68/67 79/79/78 78/78/79
f 68/68/67 69/69/69 80/80/80 79/79/78
f 69/69/69 70/70/70 81/81/81 80/80/80
f 70/70/70 71/71/71 82/82/82 81/81/81
f 71/71/71 72/72/72 83/83/83 82/82/82
f 72/72/72 73/73/73 84/84/84 83/83/83
f 73/73/73 74/74/74 85/85/85 84/84/84
f 74/74/74 75/75/75 86/86/86 85/85/85
f 75/75/75 76/76/76 87/87/87 86/86/86
f 76/76/76 77/77/77 88/88/88 87/87/87
f 78/78/79 79/79/78 90/90/89 89/89/90
f 79/79/78 80/80/80 91/91/91 90/90/89
f 80/80/80 81/81/81 92/92/92 91/91/91
f 81/81/81 82/82/82 93/93/93 92/92/92
f 82/82/82 83/83/83 94/94/94 93/93/93
f 83/83/83 84/84/84 95/95/95 94/94/94
f 84/84/84 85/85/85 96/96/96 95/95/95
f 85/85/85 86/86/86 97/97/97 96/96/96
f 86/86/86 87/87/87 98/98/98 97/97/97
f 87/87/87 88/88/88 99/99/99 98/98/98
f 89/89/90 90/90/89 101/101/100 100/100/101
f 90/90/89 91/91/91 102/102/102 101/101/100
f 91/91/91 92/92/92 103/103/103 102/102/102
f 92/92/92 93/93/93 104/104/104 103/103/103
f 93/93/93 94/94/94 105/105/105 104/104/104
f 94/94/94 95/95/95 106/106/106 105/105/105
f 95/95/95 96/96/96 107/107/107 106/106/106
f 96/96/96 97/97/97 108/108/108 107/107/107
f 97/97/97 98/98/98 109/109/109 108/108/108
f 98/98/98 99/99/99 110/110/110 109/109/109
f 100/100/101 101/101/100 112/112/111 111/111/112
f 101/101/100 102/102/102 113/113/113 112/112/111
f 102/102/102 103/103/103 114/114/114 113/113/113
f 103/103/103 104/104/104 115/115/115 114/114/114
f 104/104/104 105/105/105 116/116/116 115/115/115
f 105/105/105 106/106/106 117/117/117 116/116/116
f 106/106/106 107/107/107 118/118/118 117/117/117
f 107/107/107 108/108/108 119/119/119 118/118/118
f 108/108/108 109/109/109 120/120/120 119/119/119
f 109/109/109 110/110/110 121/121/121 120/120/120
g default
v -22.373852 2.826714 -12.679915
v -21.623375 2.815208 -12.462352
v -20.867474 2.698919 -12.258512
v -20.111014 2.496829 -12.105116
v -19.356726 2.253797 -12.020175
v -18.605839 1.989200 -11.985742
v -17.854679 1.723437 -11.980942
v -17.103516 1.457348 -11.993880
v -16.351538 1.193850 -12.009211
v -15.599356 0.932050 -12.023379
v -14.847643 0.671003 -12.037986
v -22.034819 2.852314 -13.164182
v -21.280815 2.901471 -12.940512
v -20.527235 2.852986 -12.717585
v -19.772755 2.820382 -12.506607
v -19.017614 2.718131 -12.296749
v -18.260294 2.518738 -12.139897
v -17.506525 2.270441 -12.067363
v -16.755205 2.011714 -12.032844
v -16.003939 1.750631 -12.025474
v -15.252081 1.489366 -12.028876
v -14.500266 1.228614 -12.045171
v -21.686729 2.828253 -13.645508
v -20.936701 2.828711 -13.426967
v -20.184040 2.847409 -13.207596
v -19.430544 2.907757 -12.982666
v -18.676605 2.875398 -12.756884
v -17.921419 2.825315 -12.550716
v -17.167160 2.742238 -12.336709
v -16.410401 2.549940 -12.168517
v -15.656872 2.302279 -12.093319
v -14.905077 2.045886 -12.059616
v -14.153540 1.787271 -12.055662
v -21.350054 2.828121 -14.133672
v -20.595867 2.828121 -13.913823
v -19.839867 2.828676 -13.691353
v -19.086514 2.832755 -13.470720
v -18.334196 2.837775 -13.251390
v -17.579441 2.907249 -13.028166
v -16.825642 2.894368 -12.799214
v -16.070507 2.825871 -12.595020
v -15.316380 2.761136 -12.378909
v -14.563278 2.585958 -12.199121
v -13.809385 2.343650 -12.111922
v -21.007470 2.828123 -14.617893
v -20.253283 2.828122 -14.398017
v -19.499626 2.828031 -14.175158
v -18.745026 2.828116 -13.958156
v -17.990362 2.828734 -13.736848
v -17.236538 2.828126 -13.518458
v -16.483475 2.839763 -13.294844
v -15.728361 2.906927 -13.073630
v -14.973618 2.908882 -12.843219
v -14.219557 2.826497 -12.639361
v -13.467387 2.784595 -12.421722
v -20.659531 2.829837 -15.102072
v -19.906660 2.834128 -14.883847
v -19.155928 2.828230 -14.666369
v -18.401684 2.828727 -14.444042
v -17.648190 2.828121 -14.222618
v -16.893961 2.828121 -14.002725
v -16.140240 2.828706 -13.780458
v -15.386547 2.838283 -13.558605
v -14.633263 2.843021 -13.339651
v -13.877129 2.895075 -13.122688
v -13.122294 2.859384 -12.901603
v -20.318672 2.827617 -15.587763
v -19.569264 2.893974 -15.380611
v -18.814284 2.908081 -15.153015
v -18.057844 2.837939 -14.929018
v -17.305628 2.828126 -14.706868
v -16.551329 2.828882 -14.488222
v -15.797400 2.828206 -14.266499
v -15.044504 2.828245 -14.046738
v -14.288935 2.828122 -13.827344
v -13.535027 2.828119 -13.607472
v -12.780573 2.828122 -13.387661
v -19.975521 2.555616 -16.015828
v -19.224774 2.743906 -15.843865
v -18.472079 2.825388 -15.630231
v -17.716869 2.878035 -15.424659
v -16.963097 2.910500 -15.199476
v -16.207672 2.845468 -14.972272
v -15.453793 2.828103 -14.751380
v -14.701740 2.828804 -14.533310
v -13.945534 2.828120 -14.311691
v -13.192270 2.828111 -14.091655
v -12.438091 2.828121 -13.871805
v -19.637635 2.004229 -16.126745
v -18.885134 2.261315 -16.101627
v -18.130921 2.509987 -16.035339
v -17.374708 2.717621 -15.883898
v -16.620949 2.821405 -15.674798
v -15.865982 2.855986 -15.464777
v -15.111908 2.907038 -15.244221
v -14.357760 2.862535 -15.016917
v -13.604346 2.828699 -14.797063
v -12.849758 2.828120 -14.575871
v -12.095470 2.828117 -14.355737
v -19.290611 1.446492 -16.155581
v -18.538620 1.708075 -16.164115
v -17.786833 1.969033 -16.158816
v -17.034949 2.228549 -16.129469
v -16.281109 2.478071 -16.062222
v -15.524372 2.692307 -15.922694
v -14.769736 2.810424 -15.719021
v -14.015375 2.832023 -15.501845
v -13.260664 2.892242 -15.287662
v -12.506895 2.861767 -15.061202
v -11.754812 2.828209 -14.840515
v -18.942734 0.889780 -16.164753
v -18.191179 1.151508 -16.181945
v -17.439165 1.413982 -16.197608
v -16.687296 1.679453 -16.207716
v -15.935429 1.944534 -16.201906
v -15.184595 2.211725 -16.177352
v -14.430971 2.461507 -16.101733
v -13.674217 2.680835 -15.965804
v -12.919922 2.805515 -15.763035
v -12.164095 2.828111 -15.543224
v -11.411166 2.828547 -15.324131
vt 0.753018 0.743527
vt 0.773596 0.743527
vt 0.794175 0.743527
vt 0.814753 0.743527
vt 0.835331 0.743527
vt 0.855909 0.743527
vt 0.876488 0.743527
vt 0.897066 0.743527
vt 0.917644 0.743527
vt 0.938223 0.743527
vt 0.958801 0.743527
vt 0.753018 0.764105
vt 0.773596 0.764105
vt 0.794175 0.764105
vt 0.814753 0.764105
vt 0.835331 0.764105
vt 0.855909 0.764105
vt 0.876488 0.764105
vt 0.897066 0.764105
vt 0.917644 0.764105
vt 0.938223 0.764105
vt 0.958801 0.764105
vt 0.753018 0.784684
vt 0.773596 0.784684
vt 0.794175 0.784684
vt 0.814753 0.784684
vt 0.835331 0.784684
vt 0.855909 0.784684
vt 0.876488 0.784684
vt 0.897066 0.784684
vt 0.917644 0.784684
vt 0.938223 0.784684
vt 0.958801 0.784684
vt 0.753018 0.805262
vt 0.773596 0.805262
vt 0.794175 0.805262
vt 0.814753 0.805262
vt 0.835331 0.805262
vt 0.855909 0.805262
vt 0.876488 0.805262
vt 0.897066 0.805262
vt 0.917644 0.805262
vt 0.938223 0.805262
vt 0.958801 0.805262
vt 0.753018 0.825840
vt 0.773596 0.825840
vt 0.794175 0.825840
vt 0.814753 0.825840
vt 0.835331 0.825840
vt 0.855909 0.825840
vt 0.876488 0.825840
vt 0.897066 0.825840
vt 0.917644 0.825840
vt 0.938223 0.825840
vt 0.958801 0.825840
vt 0.753018 0.846418
vt 0.773596 0.846418
vt 0.794175 0.846418
vt 0.814753 0.846418
vt 0.835331 0.846418
vt 0.855909 0.846418
vt 0.876488 0.846418
vt 0.897066 0.846418
vt 0.917644 0.846418
vt 0.938223 0.846418
vt 0.958801 0.846418
vt 0.753018 0.866997
vt 0.773596 0.866997
vt 0.794175 0.866997
vt 0.814753 0.866997
vt 0.835331 0.866997
vt 0.855909 0.866997
vt 0.876488 0.866997
vt 0.897066 0.866997
vt 0.917644 0.866997
vt 0.938223 0.866997
vt 0.958801 0.866997
vt 0.753018 0.887575
vt 0.773596 0.887575
vt 0.794175 0.887575
vt 0.814753 0.887575
vt 0.835331 0.887575
vt 0.855909 0.887575
vt 0.876488 0.887575
vt 0.897066 0.887575
vt 0.917644 0.887575
vt 0.938223 0.887575
vt 0.958801 0.887575
vt 0.753018 0.908153
vt 0.773596 0.908153
vt 0.794175 0.908153
vt 0.814753 0.908153
vt 0.835331 0.908153
vt 0.855909 0.908153
vt 0.876488 0.908153
vt 0.897066 0.908153
vt 0.917644 0.908153
vt 0.938223 0.908153
vt 0.958801 0.908153
vt 0.753018 0.928732
vt 0.773596 0.928732
vt 0.794175 0.928732
vt 0.814753 0.928732
vt 0.835331 0.928732
vt 0.855909 0.928732
vt 0.876488 0.928732
vt 0.897066 0.928732
vt 0.917644 0.928732
vt 0.938223 0.928732
vt 0.958801 0.928732
vt 0.753018 0.949310
vt 0.773596 0.949310
vt 0.794175 0.949310
vt 0.814753 0.949310
vt 0.835331 0.949310
vt 0.855909 0.949310
vt 0.876488 0.949310
vt 0.897066 0.949310
vt 0.917644 0.949310
vt 0.938223 0.949310
vt 0.958801 0.949310
vn -0.048728 0.995506 0.081200
vn -0.017849 0.987556 0.156252
vn 0.005650 0.998401 0.056248
vn -0.030688 0.999491 0.008688
vn 0.024058 0.932386 0.360662
vn 0.014935 0.978688 0.204810
vn 0.009609 0.788452 0.615021
vn -0.005363 0.906399 0.422388
vn 0.002738 0.545873 0.837863
vn 0.010900 0.755660 0.654873
vn 0.011515 0.314414 0.949216
vn 0.015964 0.553614 0.832620
vn 0.020331 0.160622 0.986807
vn 0.008746 0.344325 0.938810
vn 0.019789 0.073496 0.997099
vn 0.008220 0.179092 0.983798
vn 0.017112 0.026023 0.999515
vn 0.012108 0.080139 0.996710
vn 0.017308 0.005240 0.999836
vn 0.015175 0.031189 0.999398
vn 0.020140 -0.001176 0.999797
vn 0.018499 0.014459 0.999724
vn 0.009145 0.999087 -0.041741
vn -0.001811 0.998078 -0.061941
vn -0.007574 0.999745 -0.021262
vn 0.001515 0.999102 0.042346
vn 0.019948 0.982301 0.186241
vn -0.002266 0.914052 0.405590
vn 0.002618 0.762913 0.646496
vn 0.012656 0.559106 0.828999
vn 0.002166 0.349513 0.936929
vn 0.002463 0.177126 0.984185
vn 0.006922 0.112020 0.993682
vn -0.001768 0.999970 -0.007539
vn -0.000045 1.000000 -0.000478
vn -0.004925 0.999267 -0.037954
vn 0.010541 0.998645 -0.050964
vn -0.000824 0.999480 -0.032241
vn -0.004318 0.999696 0.024275
vn 0.020710 0.986504 0.162423
vn 0.003167 0.924820 0.380393
vn -0.001896 0.783426 0.621482
vn 0.011106 0.582625 0.812665
vn 0.001290 0.511444 0.859315
vn -0.000976 0.999996 0.002769
vn -0.001681 0.999997 0.001929
vn 0.000114 1.000000 0.000391
vn -0.000260 0.999986 -0.005241
vn -0.004685 0.999422 -0.033662
vn 0.006657 0.998360 -0.056864
vn -0.000258 0.999225 -0.039355
vn -0.009057 0.999797 0.018018
vn 0.022295 0.989227 0.144679
vn 0.017154 0.940524 0.339294
vn 0.005439 0.927423 0.373976
vn -0.024121 0.999166 0.032934
vn -0.023523 0.999656 0.011587
vn -0.008609 0.998353 0.056714
vn 0.005331 0.999423 0.033556
vn 0.001057 0.999993 0.003587
vn -0.001275 0.999990 -0.004187
vn -0.007996 0.999364 -0.034756
vn 0.004698 0.998011 -0.062856
vn 0.010342 0.998985 -0.043844
vn 0.011412 0.999905 0.007747
vn 0.029407 0.999407 0.017900
vn -0.033194 0.988141 -0.149916
vn -0.048232 0.983977 -0.171649
vn 0.002922 0.999727 -0.023165
vn 0.001390 0.999414 0.034205
vn -0.010459 0.998561 0.052596
vn 0.004204 0.999291 0.037424
vn 0.000832 0.999996 0.002604
vn 0.000474 0.999957 -0.009299
vn -0.001732 0.999500 -0.031560
vn 0.011683 0.999169 -0.039040
vn 0.017440 0.999464 -0.027717
vn 0.001698 0.754763 -0.655995
vn -0.012991 0.699809 -0.714212
vn 0.002235 0.910003 -0.414596
vn -0.021306 0.981808 -0.188675
vn -0.001731 0.999210 -0.039705
vn 0.006466 0.999689 0.024087
vn -0.012152 0.998891 0.045481
vn 0.000757 0.999081 0.042866
vn 0.003231 0.999907 0.013214
vn 0.000053 1.000000 0.000217
vn -0.000005 1.000000 -0.000004
vn -0.001124 0.314643 -0.949209
vn 0.005094 0.229778 -0.973230
vn -0.009591 0.523095 -0.852220
vn -0.006656 0.732148 -0.681113
vn 0.006580 0.895786 -0.444437
vn -0.016727 0.976380 -0.215413
vn -0.008866 0.998103 -0.060918
vn 0.011241 0.999897 0.008900
vn -0.006202 0.999440 0.032896
vn -0.000250 0.999312 0.037083
vn 0.006070 0.999661 0.025325
vn -0.015729 0.073486 -0.997172
vn -0.017125 0.046533 -0.998770
vn -0.009950 0.163329 -0.986521
vn -0.007152 0.314892 -0.949101
vn -0.012674 0.518358 -0.855070
vn -0.016373 0.726690 -0.686770
vn 0.004874 0.888561 -0.458733
vn -0.011443 0.972711 -0.231738
vn -0.012754 0.997353 -0.071590
vn 0.017265 0.999850 -0.001696
vn 0.020012 0.999774 0.007158
vn -0.020539 0.026625 -0.999434
vn -0.020984 0.011142 -0.999718
vn -0.019956 0.069562 -0.997378
vn -0.017830 0.146907 -0.988990
vn -0.013809 0.283779 -0.958790
vn -0.006060 0.502993 -0.864269
vn -0.009630 0.762808 -0.646553
vn -0.031816 0.927170 -0.373288
vn 0.004302 0.985448 -0.169924
vn 0.029837 0.998353 -0.049010
vn 0.026558 0.999525 -0.015608
s 1
g ClothSimulations InnCounterTableCloth
usemtl lambert14SG
f 122/122/122 123/123/123 134/134/124 133/133/125
f 123/123/123 124/124/126 135/135/127 134/134/124
f 124/124/126 125/125/128 136/136/129 135/135/127
f 125/125/128 126/126/130 137/137/131 136/136/129
f 126/126/130 127/127/132 138/138/133 137/137/131
f 127/127/132 128/128/134 139/139/135 138/138/133
f 128/128/134 129/129/136 140/140/137 139/139/135
f 129/129/136 130/130/138 141/141/139 140/140/137
f 130/130/138 131/131/140 142/142/141 141/141/139
f 131/131/140 132/132/142 143/143/143 142/142/141
f 133/133/125 134/134/124 145/145/144 144/144/145
f 134/134/124 135/135/127 146/146/146 145/145/144
f 135/135/127 136/136/129 147/147/147 146/146/146
f 136/136/129 137/137/131 148/148/148 147/147/147
f 137/137/131 138/138/133 149/149/149 148/148/148
f 138/138/133 139/139/135 150/150/150 149/149/149
f 139/139/135 140/140/137 151/151/151 150/150/150
f 140/140/137 141/141/139 152/152/152 151/151/151
f 141/141/139 142/142/141 153/153/153 152/152/152
f 142/142/141 143/143/143 154/154/154 153/153/153
f 144/144/145 145/145/144 156/156/155 155/155/156
f 145/145/144 146/146/146 157/157/157 156/156/155
f 146/146/146 147/147/147 158/158/158 157/157/157
f 147/147/147 148/148/148 159/159/159 158/158/158
f 148/148/148 149/149/149 160/160/160 159/159/159
f 149/149/149 150/150/150 161/161/161 160/160/160
f 150/150/150 151/151/151 162/162/162 161/161/161
f 151/151/151 152/152/152 163/163/163 162/162/162
f 152/152/152 153/153/153 164/164/164 163/163/163
f 153/153/153 154/154/154 165/165/165 164/164/164
f 155/155/156 156/156/155 167/167/166 166/166/167
f 156/156/155 157/157/157 168/168/168 167/167/166
f 157/157/157 158/158/158 169/169/169 168/168/168
f 158/158/158 159/159/159 170/170/170 169/169/169
f 159/159/159 160/160/160 171/171/171 170/170/170
f 160/160/160 161/161/161 172/172/172 171/171/171
f 161/161/161 162/162/162 173/173/173 172/172/172
f 162/162/162 163/163/163 174/174/174 173/173/173
f 163/163/163 164/164/164 175/175/175 174/174/174
f 164/164/164 165/165/165 176/176/176 175/175/175
f 166/166/167 167/167/166 178/178/177 177/177/178
f 167/167/166 168/168/168 179/179/179 178/178/177
f 168/168/168 169/169/169 180/180/180 179/179/179
f 169/169/169 170/170/170 181/181/181 180/180/180
f 170/170/170 171/171/171 182/182/182 181/181/181
f 171/171/171 172/172/172 183/183/183 182/182/182
f 172/172/172 173/173/173 184/184/184 183/183/183
f 173/173/173 174/174/174 185/185/185 184/184/184
f 174/174/174 175/175/175 186/186/186 185/185/185
f 175/175/175 176/176/176 187/187/187 186/186/186
f 177/177/178 178/178/177 189/189/188 188/188/189
f 178/178/177 179/179/179 190/190/190 189/189/188
f 179/179/179 180/180/180 191/191/191 190/190/190
f 180/180/180 181/181/181 192/192/192 191/191/191
f 181/181/181 182/182/182 193/193/193 192/192/192
f 182/182/182 183/183/183 194/194/194 193/193/193
f 183/183/183 184/184/184 195/195/195 194/194/194
f 184/184/184 185/185/185 196/196/196 195/195/195
f 185/185/185 186/186/186 197/197/197 196/196/196
f 186/186/186 187/187/187 198/198/198 197/197/197
f 188/188/189 189/189/188 200/200/199 199/199/200
f 189/189/188 190/190/190 201/201/201 200/200/199
f 190/190/190 191/191/191 202/202/202 201/201/201
f 191/191/191 192/192/192 203/203/203 202/202/202
f 192/192/192 193/193/193 204/204/204 203/203/203
f 193/193/193 194/194/194 205/205/205 204/204/204
f 194/194/194 195/195/195 206/206/206 205/205/205
f 195/195/195 196/196/196 207/207/207 206/206/206
f 196/196/196 197/197/197 208/208/208 207/207/207
f 197/197/197 198/198/198 209/209/209 208/208/208
f 199/199/200 200/200/199 211/211/210 210/210/211
f 200/200/199 201/201/201 212/212/212 211/211/210
f 201/201/201 202/202/202 213/213/213 212/212/212
f 202/202/202 203/203/203 214/214/214 213/213/213
f 203/203/203 204/204/204 215/215/215 214/214/214
f 204/204/204 205/205/205 216/216/216 215/215/215
f 205/205/205 206/206/206 217/217/217 216/216/216
f 206/206/206 207/207/207 218/218/218 217/217/217
f 207/207/207 208/208/208 219/219/219 218/218/218
f 208/208/208 209/209/209 220/220/220 219/219/219
f 210/210/211 211/211/210 222/222/221 221/221/222
f 211/211/210 212/212/212 223/223/223 222/222/221
f 212/212/212 213/213/213 224/224/224 223/223/223
f 213/213/213 214/214/214 225/225/225 224/224/224
f 214/214/214 215/215/215 226/226/226 225/225/225
f 215/215/215 216/216/216 227/227/227 226/226/226
f 216/216/216 217/217/217 228/228/228 227/227/227
f 217/217/217 218/218/218 229/229/229 228/228/228
f 218/218/218 219/219/219 230/230/230 229/229/229
f 219/219/219 220/220/220 231/231/231 230/230/230
f 221/221/222 222/222/221 233/233/232 232/232/233
f 222/222/221 223/223/223 234/234/234 233/233/232
f 223/223/223 224/224/224 235/235/235 234/234/234
f 224/224/224 225/225/225 236/236/236 235/235/235
f 225/225/225 226/226/226 237/237/237 236/236/236
f 226/226/226 227/227/227 238/238/238 237/237/237
f 227/227/227 228/228/228 239/239/239 238/238/238
f 228/228/228 229/229/229 240/240/240 239/239/239
f 229/229/229 230/230/230 241/241/241 240/240/240
f 230/230/230 231/231/231 242/242/242 241/241/241
g default
v 8.743250 1.457471 -22.690208
v 8.764756 1.523074 -22.841946
v 8.775487 1.589822 -22.996459
v 8.757543 1.637240 -23.159198
v 8.732724 1.637547 -23.324334
v 8.707723 1.637347 -23.489569
v 8.682582 1.637366 -23.654686
v 8.657290 1.637341 -23.819608
v 8.632040 1.643722 -23.984051
v 8.604286 1.611060 -24.144759
v 8.571879 1.492792 -24.258256
v 8.660750 1.595280 -22.643566
v 8.645201 1.634184 -22.805678
v 8.622987 1.651419 -22.969558
v 8.593700 1.639530 -23.135799
v 8.569328 1.637400 -23.300138
v 8.544310 1.637388 -23.465023
v 8.519170 1.638906 -23.629818
v 8.493907 1.637804 -23.794478
v 8.468512 1.655994 -23.958604
v 8.442168 1.631543 -24.121040
v 8.410953 1.534468 -24.254103
v 8.506356 1.657441 -22.617292
v 8.480091 1.645406 -22.782760
v 8.455942 1.637708 -22.946733
v 8.430671 1.638522 -23.111136
v 8.405429 1.637425 -23.276134
v 8.380600 1.637353 -23.440532
v 8.355371 1.637347 -23.605085
v 8.329932 1.637696 -23.769693
v 8.304228 1.649627 -23.933045
v 8.278867 1.639332 -24.095514
v 8.252036 1.590588 -24.251874
v 8.339018 1.637597 -22.595482
v 8.315685 1.637204 -22.758758
v 8.290996 1.637102 -22.922141
v 8.267162 1.637395 -23.087098
v 8.241928 1.637381 -23.251681
v 8.216666 1.637360 -23.416261
v 8.191483 1.637739 -23.580476
v 8.165906 1.637359 -23.744558
v 8.140313 1.638102 -23.908593
v 8.115330 1.656860 -24.072954
v 8.091255 1.630990 -24.235063
v 8.172933 1.637088 -22.572431
v 8.150786 1.638464 -22.735783
v 8.126819 1.637186 -22.898639
v 8.105075 1.637107 -23.064578
v 8.078133 1.638854 -23.227370
v 8.052888 1.637606 -23.391849
v 8.027372 1.637414 -23.555907
v 8.001970 1.637347 -23.719891
v 7.976704 1.637666 -23.884117
v 7.950924 1.646230 -24.047766
v 7.926600 1.637339 -24.211076
v 8.007901 1.636653 -22.551339
v 7.984304 1.653492 -22.711840
v 7.961403 1.637860 -22.874249
v 7.937102 1.637116 -23.036654
v 7.915941 1.637115 -23.204738
v 7.888876 1.637354 -23.367435
v 7.863375 1.637373 -23.531454
v 7.837836 1.637829 -23.695431
v 7.812425 1.637348 -23.858914
v 7.786459 1.637531 -24.022780
v 7.761382 1.637403 -24.186058
v 7.840982 1.625413 -22.528268
v 7.818113 1.660715 -22.686106
v 7.797203 1.649043 -22.852405
v 7.773510 1.637488 -23.014846
v 7.749836 1.637449 -23.179189
v 7.724875 1.638721 -23.343151
v 7.699453 1.637444 -23.507008
v 7.673079 1.637341 -23.671127
v 7.647892 1.637347 -23.833898
v 7.621896 1.637534 -23.996630
v 7.595914 1.637800 -24.160030
v 7.684732 1.561406 -22.522177
v 7.655478 1.634008 -22.669473
v 7.631700 1.665171 -22.828287
v 7.609133 1.638065 -22.991505
v 7.585777 1.637107 -23.155310
v 7.560529 1.638221 -23.319263
v 7.535455 1.637359 -23.482493
v 7.508205 1.637452 -23.646701
v 7.482705 1.639800 -23.808742
v 7.457818 1.639707 -23.970142
v 7.432102 1.662570 -24.133400
v 7.534447 1.482826 -22.537046
v 7.494237 1.594640 -22.652943
v 7.466482 1.656003 -22.804186
v 7.445368 1.650205 -22.970411
v 7.420989 1.637457 -23.131994
v 7.395716 1.637891 -23.295625
v 7.371182 1.639206 -23.457896
v 7.346179 1.643322 -23.620950
v 7.317896 1.668858 -23.783587
v 7.292825 1.649891 -23.946704
v 7.272066 1.617880 -24.108539
v 7.383643 1.411035 -22.557953
v 7.338854 1.536286 -22.655447
v 7.305734 1.634239 -22.788754
v 7.280638 1.670877 -22.946658
v 7.256581 1.637776 -23.108504
v 7.232674 1.638113 -23.271323
v 7.206870 1.658199 -23.434542
v 7.184244 1.633057 -23.597427
v 7.160921 1.603381 -23.760198
v 7.176727 1.535340 -23.913094
v 7.207606 1.467078 -24.061582
v 7.235488 1.341250 -22.580238
v 7.185123 1.477244 -22.664923
v 7.145644 1.610361 -22.766810
v 7.117733 1.655438 -22.923888
v 7.093067 1.637478 -23.084376
v 7.068575 1.636885 -23.248988
v 7.049257 1.604094 -23.411805
v 7.061602 1.525864 -23.561314
v 7.080682 1.462520 -23.714340
v 7.126834 1.388616 -23.855503
v 7.169500 1.317869 -24.000445
vt 0.048828 0.048830
vt 0.095018 0.048830
vt 0.141208 0.048830
vt 0.187398 0.048830
vt 0.233589 0.048830
vt 0.279779 0.048830
vt 0.325969 0.048830
vt 0.372159 0.048830
vt 0.418349 0.048830
vt 0.464539 0.048830
vt 0.510729 0.048830
vt 0.048828 0.095020
vt 0.095018 0.095020
vt 0.141208 0.095020
vt 0.187398 0.095020
vt 0.233589 0.095020
vt 0.279779 0.095020
vt 0.325969 0.095020
vt 0.372159 0.095020
vt 0.418349 0.095020
vt 0.464539 0.095020
vt 0.510729 0.095020
vt 0.048828 0.141210
vt 0.095018 0.141210
vt 0.141208 0.141210
vt 0.187398 0.141210
vt 0.233589 0.141210
vt 0.279779 0.141210
vt 0.325969 0.141210
vt 0.372159 0.141210
vt 0.418349 0.141210
vt 0.464539 0.141210
vt 0.510729 0.141210
vt 0.048828 0.187400
vt 0.095018 0.187400
vt 0.141208 0.187400
vt 0.187398 0.187400
vt 0.233589 0.187400
vt 0.279779 0.187400
vt 0.325969 0.187400
vt 0.372159 0.187400
vt 0.418349 0.187400
vt 0.464539 0.187400
vt 0.510729 0.187400
vt 0.048828 0.233590
vt 0.095018 0.233590
vt 0.141208 0.233590
vt 0.187398 0.233590
vt 0.233589 0.233590
vt 0.279779 0.233590
vt 0.325969 0.233590
vt 0.372159 0.233590
vt 0.418349 0.233590
vt 0.464539 0.233590
vt 0.510729 0.233590
vt 0.048828 0.279780
vt 0.095018 0.279780
vt 0.141208 0.279780
vt 0.187398 0.279780
vt 0.233589 0.279780
vt 0.279779 0.279780
vt 0.325969 0.279780
vt 0.372159 0.279780
vt 0.418349 0.279780
vt 0.464539 0.279780
vt 0.510729 0.279780
vt 0.048828 0.325971
vt 0.095018 0.325971
vt 0.141208 0.325971
vt 0.187398 0.325971
vt 0.233589 0.325971
vt 0.279779 0.325971
vt 0.325969 0.325971
vt 0.372159 0.325971
vt 0.418349 0.325971
vt 0.464539 0.325971
vt 0.510729 0.325971
vt 0.048828 0.372161
vt 0.095018 0.372161
vt 0.141208 0.372161
vt 0.187398 0.372161
vt 0.233589 0.372161
vt 0.279779 0.372161
vt 0.325969 0.372161
vt 0.372159 0.372161
vt 0.418349 0.372161
vt 0.464539 0.372161
vt 0.510729 0.372161
vt 0.048828 0.418351
vt 0.095018 0.418351
vt 0.141208 0.418351
vt 0.187398 0.418351
vt 0.233589 0.418351
vt 0.279779 0.418351
vt 0.325969 0.418351
vt 0.372159 0.418351
vt 0.418349 0.418351
vt 0.464539 0.418351
vt 0.510729 0.418351
vt 0.048828 0.464541
vt 0.095018 0.464541
vt 0.141208 0.464541
vt 0.187398 0.464541
vt 0.233589 0.464541
vt 0.279779 0.464541
vt 0.325969 0.464541
vt 0.372159 0.464541
vt 0.418349 0.464541
vt 0.464539 0.464541
vt 0.510729 0.464541
vt 0.048828 0.510731
vt 0.095018 0.510731
vt 0.141208 0.510731
vt 0.187398 0.510731
vt 0.233589 0.510731
vt 0.279779 0.510731
vt 0.325969 0.510731
vt 0.372159 0.510731
vt 0.418349 0.510731
vt 0.464539 0.510731
vt 0.510729 0.510731
vn 0.792200 0.574340 0.206283
vn 0.684652 0.700203 0.202406
vn 0.419122 0.898970 0.127239
vn 0.545027 0.827215 0.136604
vn 0.389534 0.910862 0.136359
vn 0.183841 0.980446 0.070204
vn 0.106806 0.993690 0.034237
vn 0.038753 0.999218 0.007855
vn 0.002610 0.999990 -0.003479
vn 0.000192 0.999992 -0.004084
vn 0.002502 0.999996 0.001624
vn 0.000217 0.999998 0.002055
vn 0.005448 0.999985 -0.000210
vn 0.000374 1.000000 0.000832
vn 0.027368 0.999132 0.031395
vn 0.010985 0.999200 0.038444
vn 0.060379 0.996414 -0.059274
vn 0.025842 0.999138 -0.032478
vn 0.080646 0.893181 -0.442407
vn 0.070946 0.927467 -0.367114
vn 0.084685 0.739541 -0.667763
vn 0.109474 0.812263 -0.572926
vn 0.026382 0.999613 0.008792
vn 0.071178 0.997382 0.012728
vn -0.021653 0.999761 -0.002972
vn -0.015413 0.999846 -0.008377
vn -0.002141 0.999993 -0.003093
vn -0.000741 0.999999 0.001413
vn -0.001974 0.999997 0.001137
vn -0.010027 0.999384 0.033641
vn -0.006476 0.999886 0.013632
vn 0.072208 0.976691 -0.202138
vn 0.138210 0.923497 -0.357843
vn -0.028123 0.999538 -0.011564
vn -0.043073 0.999011 -0.011076
vn -0.007845 0.999958 -0.004839
vn -0.001255 0.999998 0.001641
vn 0.001177 0.999999 -0.000749
vn 0.001411 0.999999 -0.000828
vn 0.000038 1.000000 0.000058
vn -0.007883 0.999905 0.011353
vn -0.007409 0.999215 0.038906
vn 0.028740 0.997728 -0.060937
vn 0.056777 0.982817 -0.175633
vn 0.023815 0.999712 -0.002779
vn 0.026525 0.999317 0.025732
vn 0.010837 0.999812 -0.016058
vn 0.000253 0.999998 0.002151
vn -0.000489 0.999999 0.001000
vn -0.000727 0.999999 -0.001600
vn -0.000208 1.000000 -0.000004
vn -0.000039 1.000000 0.000652
vn -0.010982 0.999490 0.029976
vn -0.025357 0.999676 -0.002062
vn -0.028953 0.997618 -0.062610
vn 0.036112 0.999234 0.015077
vn 0.031224 0.994054 0.104312
vn 0.028143 0.998466 -0.047677
vn 0.007198 0.999926 -0.009787
vn -0.000777 0.999998 0.001804
vn 0.000569 0.999999 -0.000758
vn 0.000802 0.999999 -0.000650
vn -0.000212 1.000000 0.000115
vn -0.005995 0.999954 0.007447
vn -0.012745 0.999917 0.002099
vn -0.014208 0.999834 -0.011435
vn -0.051629 0.990604 0.126645
vn -0.110870 0.958513 0.262602
vn 0.020636 0.998600 -0.048715
vn 0.016052 0.998989 -0.041989
vn 0.001656 0.999997 0.001920
vn 0.001329 0.999999 0.000187
vn 0.000001 0.999997 -0.002325
vn 0.001478 0.999998 0.001461
vn 0.005204 0.999986 0.000990
vn 0.026600 0.999549 0.013959
vn 0.046057 0.998542 0.028156
vn -0.163989 0.926416 0.338911
vn -0.258929 0.835374 0.484877
vn -0.025210 0.999064 0.035153
vn 0.014943 0.997570 -0.068049
vn 0.007746 0.999926 -0.009344
vn 0.000307 0.999999 0.001663
vn 0.006693 0.999977 0.000816
vn 0.037545 0.999091 0.020185
vn 0.061745 0.998091 -0.001213
vn 0.027363 0.999590 -0.008435
vn -0.006868 0.999727 0.022346
vn -0.226451 0.797750 0.558852
vn -0.293839 0.666492 0.685163
vn -0.076245 0.974914 0.209117
vn 0.019384 0.998502 -0.051165
vn 0.019120 0.998719 -0.046853
vn 0.018429 0.999708 0.015603
vn 0.028456 0.999595 -0.000206
vn -0.016183 0.999836 0.008188
vn -0.147988 0.987763 -0.049221
vn -0.385200 0.913151 -0.133327
vn -0.523739 0.844271 -0.113595
vn -0.239006 0.652779 0.718857
vn -0.296827 0.525851 0.797104
vn -0.107354 0.905262 0.411067
vn -0.025283 0.999553 0.015946
vn -0.007254 0.997321 -0.072789
vn -0.026112 0.999600 0.010851
vn -0.156254 0.985129 -0.071452
vn -0.406702 0.905360 -0.122136
vn -0.674474 0.715309 -0.182807
vn -0.848974 0.453609 -0.271075
vn -0.906384 0.335348 -0.256922
vn -0.223016 0.582931 0.781316
vn -0.289820 0.474183 0.831357
vn -0.120404 0.853220 0.507463
vn -0.076123 0.995472 0.056920
vn -0.036567 0.996669 -0.072897
vn -0.087933 0.996099 -0.007358
vn -0.355858 0.924445 -0.136993
vn -0.667583 0.713968 -0.211146
vn -0.859282 0.445397 -0.251507
vn -0.921140 0.222286 -0.319516
vn -0.938409 0.155188 -0.308716
s 1
g ClothSimulations pPlane18
usemtl lambert12SG
f 243/243/243 244/244/244 255/255/245 254/254/246
f 244/244/244 245/245/247 256/256/248 255/255/245
f 245/245/247 246/246/249 257/257/250 256/256/248
f 246/246/249 247/247/251 258/258/252 257/257/250
f 247/247/251 248/248/253 259/259/254 258/258/252
f 248/248/253 249/249/255 260/260/256 259/259/254
f 249/249/255 250/250/257 261/261/258 260/260/256
f 250/250/257 251/251/259 262/262/260 261/261/258
f 251/251/259 252/252/261 263/263/262 262/262/260
f 252/252/261 253/253/263 264/264/264 263/263/262
f 254/254/246 255/255/245 266/266/265 265/265/266
f 255/255/245 256/256/248 267/267/267 266/266/265
f 256/256/248 257/257/250 268/268/268 267/267/267
f 257/257/250 258/258/252 269/269/269 268/268/268
f 258/258/252 259/259/254 270/270/270 269/269/269
f 259/259/254 260/260/256 271/271/271 270/270/270
f 260/260/256 261/261/258 272/272/272 271/271/271
f 261/261/258 262/262/260 273/273/273 272/272/272
f 262/262/260 263/263/262 274/274/274 273/273/273
f 263/263/262 264/264/264 275/275/275 274/274/274
f 265/265/266 266/266/265 277/277/276 276/276/277
f 266/266/265 267/267/267 278/278/278 277/277/276
f 267/267/267 268/268/268 279/279/279 278/278/278
f 268/268/268 269/269/269 280/280/280 279/279/279
f 269/269/269 270/270/270 281/281/281 280/280/280
f 270/270/270 271/271/271 282/282/282 281/281/281
f 271/271/271 272/272/272 283/283/283 282/282/282
f 272/272/272 273/273/273 284/284/284 283/283/283
f 273/273/273 274/274/274 285/285/285 284/284/284
f 274/274/274 275/275/275 286/286/286 285/285/285
f 276/276/277 277/277/276 288/288/287 287/287/288
f 277/277/276 278/278/278 289/289/289 288/288/287
f 278/278/278 279/279/279 290/290/290 289/289/289
f 279/279/279 280/280/280 291/291/291 290/290/290
f 280/280/280 281/281/281 292/292/292 291/291/291
f 281/281/281 282/282/282 293/293/293 292/292/292
f 282/282/282 283/283/283 294/294/294 293/293/293
f 283/283/283 284/284/284 295/295/295 294/294/294
f 284/284/284 285/285/285 296/296/296 295/295/295
f 285/285/285 286/286/286 297/297/297 296/296/296
f 287/287/288 288/288/287 299/299/298 298/298/299
f 288/288/287 289/289/289 300/300/300 299/299/298
f 289/289/289 290/290/290 301/301/301 300/300/300
f 290/290/290 291/291/291 302/302/302 301/301/301
f 291/291/291 292/292/292 303/303/303 302/302/302
f 292/292/292 293/293/293 304/304/304 303/303/303
f 293/293/293 294/294/294 305/305/305 304/304/304
f 294/294/294 295/295/295 306/306/306 305/305/305
f 295/295/295 296/296/296 307/307/307 306/306/306
f 296/296/296 297/297/297 308/308/308 307/307/307
f 298/298/299 299/299/298 310/310/309 309/309/310
f 299/299/298 300/300/300 311/311/311 310/310/309
f 300/300/300 301/301/301 312/312/312 311/311/311
f 301/301/301 302/302/302 313/313/313 312/312/312
f 302/302/302 303/303/303 314/314/314 313/313/313
f 303/303/303 304/304/304 315/315/315 314/314/314
f 304/304/304 305/305/305 316/316/316 315/315/315
f 305/305/305 306/306/306 317/317/317 316/316/316
f 306/306/306 307/307/307 318/318/318 317/317/317
f 307/307/307 308/308/308 319/319/319 318/318/318
f 309/309/310 310/310/309 321/321/320 320/320/321
f 310/310/309 311/311/311 322/322/322 321/321/320
f 311/311/311 312/312/312 323/323/323 322/322/322
f 312/312/312 313/313/313 324/324/324 323/323/323
f 313/313/313 314/314/314 325/325/325 324/324/324
f 314/314/314 315/315/315 326/326/326 325/325/325
f 315/315/315 316/316/316 327/327/327 326/326/326
f 316/316/316 317/317/317 328/328/328 327/327/327
f 317/317/317 318/318/318 329/329/329 328/328/328
f 318/318/318 319/319/319 330/330/330 329/329/329
f 320/320/321 321/321/320 332/332/331 331/331/332
f 321/321/320 322/322/322 333/333/333 332/332/331
f 322/322/322 323/323/323 334/334/334 333/333/333
f 323/323/323 324/324/324 335/335/335 334/334/334
f 324/324/324 325/325/325 336/336/336 335/335/335
f 325/325/325 326/326/326 337/337/337 336/336/336
f 326/326/326 327/327/327 338/338/338 337/337/337
f 327/327/327 328/328/328 339/339/339 338/338/338
f 328/328/328 329/329/329 340/340/340 339/339/339
f 329/329/329 330/330/330 341/341/341 340/340/340
f 331/331/332 332/332/331 343/343/342 342/342/343
f 332/332/331 333/333/333 344/344/344 343/343/342
f 333/333/333 334/334/334 345/345/345 344/344/344
f 334/334/334 335/335/335 346/346/346 345/345/345
f 335/335/335 336/336/336 347/347/347 346/346/346
f 336/336/336 337/337/337 348/348/348 347/347/347
f 337/337/337 338/338/338 349/349/349 348/348/348
f 338/338/338 339/339/339 350/350/350 349/349/349
f 339/339/339 340/340/340 351/351/351 350/350/350
f 340/340/340 341/341/341 352/352/352 351/351/351
f 342/342/343 343/343/342 354/354/353 353/353/354
f 343/343/342 344/344/344 355/355/355 354/354/353
f 344/344/344 345/345/345 356/356/356 355/355/355
f 345/345/345 346/346/346 357/357/357 356/356/356
f 346/346/346 347/347/347 358/358/358 357/357/357
f 347/347/347 348/348/348 359/359/359 358/358/358
f 348/348/348 349/349/349 360/360/360 359/359/359
f 349/349/349 350/350/350 361/361/361 360/360/360
f 350/350/350 351/351/351 362/362/362 361/361/361
f 351/351/351 352/352/352 363/363/363 362/362/362
